<svg viewBox="0 0 120 120" xmlns="http://www.w3.org/2000/svg"><path d="M26.1 7.2A99.1 99.1 0 008.8 43.9c-2 11-.1 21.6 5.7 29.1 4.8 6.2 11 9.8 17.8 11.8-1.6 7.8-3 16.2-4.2 25.2l23.8 4c1.3-11 3-20.5 4.9-28.8l6.7-1.7C88.8 75.8 104 63 110 48.4c5-14.6 0-31.6-12.9-37.8-13.4-6.2-30.3.5-42.2 16.6a113.7 113.7 0 00-16.4 33.7c-2.3-.7-4.2-1.5-5-2.6-1.2-1.5-2.3-3.7-1.1-9.9a79.3 79.3 0 0113.5-27.6L26.1 7.2zm59.7 25c.6 0 1 .1 1.1.2.6.3 2.6 1.6.4 7.1-1.8 4.6-7.8 11.8-21.7 17.7 2.8-6.7 5.7-12 8.5-15.7 6.1-8.1 9.9-9.4 11.7-9.3z"/></svg>